<svg width="82" height="18" viewBox="0 0 82 18" fill="none" xmlns="http://www.w3.org/2000/svg">
<path d="M0.84 8.6C0.84 6.952 1.208 5.48 1.944 4.184C2.696 2.872 3.712 1.856 4.992 1.136C6.288 0.4 7.736 0.0319996 9.336 0.0319996C11.208 0.0319996 12.848 0.512 14.256 1.472C15.664 2.432 16.648 3.76 17.208 5.456H13.344C12.96 4.656 12.416 4.056 11.712 3.656C11.024 3.256 10.224 3.056 9.312 3.056C8.336 3.056 7.464 3.288 6.696 3.752C5.944 4.2 5.352 4.84 4.92 5.672C4.504 6.504 4.296 7.48 4.296 8.6C4.296 9.704 4.504 10.68 4.92 11.528C5.352 12.36 5.944 13.008 6.696 13.472C7.464 13.92 8.336 14.144 9.312 14.144C10.224 14.144 11.024 13.944 11.712 13.544C12.416 13.128 12.96 12.52 13.344 11.72H17.208C16.648 13.432 15.664 14.768 14.256 15.728C12.864 16.672 11.224 17.144 9.336 17.144C7.736 17.144 6.288 16.784 4.992 16.064C3.712 15.328 2.696 14.312 1.944 13.016C1.208 11.72 0.84 10.248 0.84 8.6ZM23.5099 14.168H31.0459V17H19.6219V14.408L27.1099 3.08H19.6219V0.248H31.0459V2.84L23.5099 14.168ZM39.69 17.168C38.522 17.168 37.466 16.968 36.522 16.568C35.594 16.168 34.858 15.592 34.314 14.84C33.77 14.088 33.49 13.2 33.474 12.176H37.074C37.122 12.864 37.362 13.408 37.794 13.808C38.242 14.208 38.85 14.408 39.618 14.408C40.402 14.408 41.018 14.224 41.466 13.856C41.914 13.472 42.138 12.976 42.138 12.368C42.138 11.872 41.986 11.464 41.682 11.144C41.378 10.824 40.994 10.576 40.53 10.4C40.082 10.208 39.458 10 38.658 9.776C37.57 9.456 36.682 9.144 35.994 8.84C35.322 8.52 34.738 8.048 34.242 7.424C33.762 6.784 33.522 5.936 33.522 4.88C33.522 3.888 33.77 3.024 34.266 2.288C34.762 1.552 35.458 0.991999 36.354 0.607999C37.25 0.208 38.274 0.0079999 39.426 0.0079999C41.154 0.0079999 42.554 0.432 43.626 1.28C44.714 2.112 45.314 3.28 45.426 4.784H41.73C41.698 4.208 41.45 3.736 40.986 3.368C40.538 2.984 39.938 2.792 39.186 2.792C38.53 2.792 38.002 2.96 37.602 3.296C37.218 3.632 37.026 4.12 37.026 4.76C37.026 5.208 37.17 5.584 37.458 5.888C37.762 6.176 38.13 6.416 38.562 6.608C39.01 6.784 39.634 6.992 40.434 7.232C41.522 7.552 42.41 7.872 43.098 8.192C43.786 8.512 44.378 8.992 44.874 9.632C45.37 10.272 45.618 11.112 45.618 12.152C45.618 13.048 45.386 13.88 44.922 14.648C44.458 15.416 43.778 16.032 42.882 16.496C41.986 16.944 40.922 17.168 39.69 17.168ZM66.795 0.248V17H63.435V6.104L58.947 17H56.403L51.891 6.104V17H48.531V0.248H52.347L57.675 12.704L63.003 0.248H66.795ZM75.9009 17.168C74.7329 17.168 73.6769 16.968 72.7329 16.568C71.8049 16.168 71.0689 15.592 70.5249 14.84C69.9809 14.088 69.7009 13.2 69.6849 12.176H73.2849C73.3329 12.864 73.5729 13.408 74.0049 13.808C74.4529 14.208 75.0609 14.408 75.8289 14.408C76.6129 14.408 77.2289 14.224 77.6769 13.856C78.1249 13.472 78.3489 12.976 78.3489 12.368C78.3489 11.872 78.1969 11.464 77.8929 11.144C77.5889 10.824 77.2049 10.576 76.7409 10.4C76.2929 10.208 75.6689 10 74.8689 9.776C73.7809 9.456 72.8929 9.144 72.2049 8.84C71.5329 8.52 70.9489 8.048 70.4529 7.424C69.9729 6.784 69.7329 5.936 69.7329 4.88C69.7329 3.888 69.9809 3.024 70.4769 2.288C70.9729 1.552 71.6689 0.991999 72.5649 0.607999C73.4609 0.208 74.4849 0.0079999 75.6369 0.0079999C77.3649 0.0079999 78.7649 0.432 79.8369 1.28C80.9249 2.112 81.5249 3.28 81.6369 4.784H77.9409C77.9089 4.208 77.6609 3.736 77.1969 3.368C76.7489 2.984 76.1489 2.792 75.3969 2.792C74.7409 2.792 74.2129 2.96 73.8129 3.296C73.4289 3.632 73.2369 4.12 73.2369 4.76C73.2369 5.208 73.3809 5.584 73.6689 5.888C73.9729 6.176 74.3409 6.416 74.7729 6.608C75.2209 6.784 75.8449 6.992 76.6449 7.232C77.7329 7.552 78.6209 7.872 79.3089 8.192C79.9969 8.512 80.5889 8.992 81.0849 9.632C81.5809 10.272 81.8289 11.112 81.8289 12.152C81.8289 13.048 81.5969 13.88 81.1329 14.648C80.6689 15.416 79.9889 16.032 79.0929 16.496C78.1969 16.944 77.1329 17.168 75.9009 17.168Z" fill="#007C6D"/>
</svg>
